<svg xmlns="http://www.w3.org/2000/svg" xmlns:xlink="http://www.w3.org/1999/xlink" fill="none" version="1.1" width="90" height="136" viewBox="0 0 90 136"><defs><filter id="master_svg0_2_09266" filterUnits="objectBoundingBox" color-interpolation-filters="sRGB" x="-0.1791044776119403" y="-0.0847457627118644" width="1.3582089552238805" height="1.2033898305084745"><feFlood flood-opacity="0" result="BackgroundImageFix"/><feColorMatrix in="SourceAlpha" type="matrix" values="0 0 0 0 0 0 0 0 0 0 0 0 0 0 0 0 0 0 127 0"/><feOffset dy="2" dx="0"/><feGaussianBlur stdDeviation="3"/><feColorMatrix type="matrix" values="0 0 0 0 0 0 0 0 0 0 0 0 0 0 0 0 0 0 0.30000001192092896 0"/><feBlend mode="normal" in2="BackgroundImageFix" result="effect1_dropShadow"/><feBlend mode="normal" in="SourceGraphic" in2="effect1_dropShadow" result="shape"/></filter><radialGradient cx="0" cy="0" r="1" gradientUnits="userSpaceOnUse" id="master_svg1_2_09087" gradientTransform="translate(39.49652415513992 118.33249151706696) rotate(63.21103576004861) scale(134.8002448609303 101.40444067920346)"><stop offset="0%" stop-color="#127FFF" stop-opacity="1"/><stop offset="94.73759531974792%" stop-color="#27C6FF" stop-opacity="1"/></radialGradient><filter id="master_svg2_1_824" filterUnits="objectBoundingBox" color-interpolation-filters="sRGB" x="-0.2222222222222222" y="-0.1875" width="1.4444444444444444" height="1.5"><feFlood flood-opacity="0" result="BackgroundImageFix"/><feColorMatrix in="SourceAlpha" type="matrix" values="0 0 0 0 0 0 0 0 0 0 0 0 0 0 0 0 0 0 127 0"/><feOffset dy="1" dx="0"/><feGaussianBlur stdDeviation="1"/><feColorMatrix type="matrix" values="0 0 0 0 0 0 0 0 0 0 0 0 0 0 0 0 0 0 0.10000000149011612 0"/><feBlend mode="normal" in2="BackgroundImageFix" result="effect1_dropShadow"/><feBlend mode="normal" in="SourceGraphic" in2="effect1_dropShadow" result="shape"/></filter><linearGradient x1="0.5" y1="0.591566264629364" x2="0.5" y2="1" id="master_svg3_2_07652"><stop offset="0%" stop-color="#FF9D24" stop-opacity="1"/><stop offset="100%" stop-color="#FF6F07" stop-opacity="1"/></linearGradient><filter id="master_svg4_2_09227" filterUnits="objectBoundingBox" color-interpolation-filters="sRGB" x="0" y="0" width="1" height="1"><feFlood flood-opacity="0" result="BackgroundImageFix"/><feBlend mode="normal" in="SourceGraphic" in2="BackgroundImageFix" result="shape"/><feColorMatrix in="SourceAlpha" type="matrix" result="hardAlpha" values="0 0 0 0 0 0 0 0 0 0 0 0 0 0 0 0 0 0 127 0"/><feOffset dy="0.5" dx="0"/><feGaussianBlur stdDeviation="3"/><feComposite in2="hardAlpha" operator="arithmetic" k2="-1" k3="1"/><feColorMatrix type="matrix" values="0 0 0 0 0 0 0 0 0 0 0 0 0 0 0 0 0 0 0.10000000149011612 0"/><feBlend mode="normal" in2="shape" result="effect1_innerShadow"/></filter></defs><g><g filter="url(#master_svg0_2_09266)"><path d="M13.65278,65C11.083120000000001,65,9,62.7614,9,60L9,12C9,9.23857,11.083120000000001,7,13.65278,7L61.2018,7C63.0656,7,64.7496,8.19533,65.4812,10.03758L67.652,15.50425C68.96170000000001,18.8027,66.7097,22.4667,63.3725,22.4667L32.077799999999996,22.4667C29.5081,22.4667,27.425,24.7052,27.425,27.4667L27.425,60C27.425,62.7614,25.3419,65,22.772199999999998,65L13.65278,65ZM34.125,73C31.5553,73,29.4722,70.76140000000001,29.4722,68L29.4722,63C29.4722,60.2386,31.5553,58,34.125,58L71.3472,58C73.9169,58,76,60.2386,76,63L76,68C76,70.76140000000001,73.9169,73,71.3472,73L34.125,73ZM9,120L9,72C9,69.23859999999999,11.083120000000001,67,13.65278,67L22.9583,67C25.528,67,27.6111,69.23859999999999,27.6111,72L27.6111,120C27.6111,122.761,25.528,125,22.9583,125L13.65278,125C11.083120000000001,125,9,122.761,9,120Z" fill-rule="evenodd" fill="url(#master_svg1_2_09087)" fill-opacity="1"/></g><g><g filter="url(#master_svg2_1_824)"><path d="M70.82296,7C69.496218,7,68.614913,8.13853,69.167705,9.13836L76.34475,22.119500000000002C76.99385,23.2935,79.0061,23.2935,79.6553,22.119500000000002L86.8323,9.13836C87.3851,8.13853,86.5038,7,85.17699999999999,7L70.82296,7Z" fill="url(#master_svg3_2_07652)" fill-opacity="1"/></g><g filter="url(#master_svg4_2_09227)"><path d="M74.01275,9C73.275677,9,72.786063,9.711579,73.0931695,10.33648L77.08042,18.449669999999998C77.44103,19.1834,78.55897,19.1834,78.91958,18.449669999999998L82.90683,10.33648C83.2139,9.711579,82.72432,9,81.98725,9L74.01275,9Z" fill="#FF7C0F" fill-opacity="1"/></g></g></g></svg>